<mxfile host="65bd71144e">
    <diagram id="C5RBs43oDa-KdzZeNtuy" name="Page-1">
        <mxGraphModel dx="516" dy="567" grid="1" gridSize="10" guides="1" tooltips="1" connect="1" arrows="1" fold="1" page="1" pageScale="1" pageWidth="827" pageHeight="1169" math="0" shadow="0">
            <root>
                <mxCell id="WIyWlLk6GJQsqaUBKTNV-0"/>
                <mxCell id="WIyWlLk6GJQsqaUBKTNV-1" parent="WIyWlLk6GJQsqaUBKTNV-0"/>
                <mxCell id="7BmVZYCQMe31qWAxTi0C-3" value="&lt;font style=&quot;font-size: 14px&quot;&gt;&lt;b&gt;Inicio&lt;/b&gt;&lt;/font&gt;" style="ellipse;whiteSpace=wrap;html=1;" parent="WIyWlLk6GJQsqaUBKTNV-1" vertex="1">
                    <mxGeometry x="367.5" y="10" width="105" height="70" as="geometry"/>
                </mxCell>
                <mxCell id="7BmVZYCQMe31qWAxTi0C-4" value="" style="rounded=0;html=1;jettySize=auto;orthogonalLoop=1;fontSize=11;endArrow=block;endFill=0;endSize=8;strokeWidth=1;shadow=0;labelBackgroundColor=none;edgeStyle=orthogonalEdgeStyle;" parent="WIyWlLk6GJQsqaUBKTNV-1" edge="1">
                    <mxGeometry relative="1" as="geometry">
                        <mxPoint x="419.40999999999997" y="80" as="sourcePoint"/>
                        <mxPoint x="419.40999999999997" y="130" as="targetPoint"/>
                    </mxGeometry>
                </mxCell>
                <mxCell id="aayCx1ubVQOjWBkTqG4c-0" value="" style="edgeStyle=orthogonalEdgeStyle;rounded=0;orthogonalLoop=1;jettySize=auto;html=1;" parent="WIyWlLk6GJQsqaUBKTNV-1" source="7BmVZYCQMe31qWAxTi0C-5" target="7BmVZYCQMe31qWAxTi0C-7" edge="1">
                    <mxGeometry relative="1" as="geometry"/>
                </mxCell>
                <mxCell id="7BmVZYCQMe31qWAxTi0C-5" value="&lt;b&gt;Insertar Array de Elementos&lt;/b&gt;" style="shape=parallelogram;perimeter=parallelogramPerimeter;whiteSpace=wrap;html=1;fixedSize=1;" parent="WIyWlLk6GJQsqaUBKTNV-1" vertex="1">
                    <mxGeometry x="340" y="130" width="160" height="40" as="geometry"/>
                </mxCell>
                <mxCell id="7BmVZYCQMe31qWAxTi0C-8" value="" style="edgeStyle=orthogonalEdgeStyle;rounded=0;orthogonalLoop=1;jettySize=auto;html=1;" parent="WIyWlLk6GJQsqaUBKTNV-1" edge="1">
                    <mxGeometry relative="1" as="geometry">
                        <mxPoint x="420" y="350" as="sourcePoint"/>
                        <mxPoint x="420" y="390" as="targetPoint"/>
                    </mxGeometry>
                </mxCell>
                <mxCell id="aayCx1ubVQOjWBkTqG4c-1" value="" style="edgeStyle=orthogonalEdgeStyle;rounded=0;orthogonalLoop=1;jettySize=auto;html=1;" parent="WIyWlLk6GJQsqaUBKTNV-1" source="7BmVZYCQMe31qWAxTi0C-7" target="7BmVZYCQMe31qWAxTi0C-55" edge="1">
                    <mxGeometry relative="1" as="geometry"/>
                </mxCell>
                <mxCell id="7BmVZYCQMe31qWAxTi0C-7" value="&lt;b&gt;ArrayFinal = [0]&lt;br&gt;ArrayIndice = [0]&lt;/b&gt;" style="rounded=0;whiteSpace=wrap;html=1;" parent="WIyWlLk6GJQsqaUBKTNV-1" vertex="1">
                    <mxGeometry x="360" y="210" width="120" height="60" as="geometry"/>
                </mxCell>
                <mxCell id="7BmVZYCQMe31qWAxTi0C-11" value="" style="verticalLabelPosition=bottom;verticalAlign=top;html=1;shape=hexagon;perimeter=hexagonPerimeter2;arcSize=6;size=0.27;" parent="WIyWlLk6GJQsqaUBKTNV-1" vertex="1">
                    <mxGeometry x="330" y="390" width="180" height="70" as="geometry"/>
                </mxCell>
                <mxCell id="7BmVZYCQMe31qWAxTi0C-15" value="" style="edgeStyle=orthogonalEdgeStyle;rounded=0;orthogonalLoop=1;jettySize=auto;html=1;" parent="WIyWlLk6GJQsqaUBKTNV-1" source="7BmVZYCQMe31qWAxTi0C-12" target="7BmVZYCQMe31qWAxTi0C-14" edge="1">
                    <mxGeometry relative="1" as="geometry"/>
                </mxCell>
                <mxCell id="7BmVZYCQMe31qWAxTi0C-12" value="&lt;font style=&quot;font-size: 14px&quot;&gt;&lt;b&gt;i= 1;&lt;br&gt;i&amp;lt;= Array.length&lt;br&gt;i++&lt;/b&gt;&lt;/font&gt;" style="text;html=1;strokeColor=none;fillColor=none;align=center;verticalAlign=middle;whiteSpace=wrap;rounded=0;" parent="WIyWlLk6GJQsqaUBKTNV-1" vertex="1">
                    <mxGeometry x="368.75" y="395" width="110" height="60" as="geometry"/>
                </mxCell>
                <mxCell id="7BmVZYCQMe31qWAxTi0C-18" value="" style="edgeStyle=orthogonalEdgeStyle;rounded=0;orthogonalLoop=1;jettySize=auto;html=1;" parent="WIyWlLk6GJQsqaUBKTNV-1" source="7BmVZYCQMe31qWAxTi0C-14" target="7BmVZYCQMe31qWAxTi0C-17" edge="1">
                    <mxGeometry relative="1" as="geometry"/>
                </mxCell>
                <mxCell id="7BmVZYCQMe31qWAxTi0C-27" style="edgeStyle=orthogonalEdgeStyle;rounded=0;orthogonalLoop=1;jettySize=auto;html=1;exitX=1;exitY=0.5;exitDx=0;exitDy=0;" parent="WIyWlLk6GJQsqaUBKTNV-1" source="7BmVZYCQMe31qWAxTi0C-14" edge="1">
                    <mxGeometry relative="1" as="geometry">
                        <mxPoint x="590" y="560.0588235294117" as="targetPoint"/>
                    </mxGeometry>
                </mxCell>
                <mxCell id="7BmVZYCQMe31qWAxTi0C-58" style="edgeStyle=orthogonalEdgeStyle;rounded=0;orthogonalLoop=1;jettySize=auto;html=1;exitX=0.5;exitY=1;exitDx=0;exitDy=0;entryX=0.5;entryY=0;entryDx=0;entryDy=0;" parent="WIyWlLk6GJQsqaUBKTNV-1" source="7BmVZYCQMe31qWAxTi0C-14" target="7BmVZYCQMe31qWAxTi0C-57" edge="1">
                    <mxGeometry relative="1" as="geometry"/>
                </mxCell>
                <mxCell id="7BmVZYCQMe31qWAxTi0C-14" value="&lt;b&gt;&lt;font style=&quot;font-size: 14px&quot;&gt;Array[0] &amp;gt; Array[i]&lt;/font&gt;&lt;/b&gt;" style="rhombus;whiteSpace=wrap;html=1;" parent="WIyWlLk6GJQsqaUBKTNV-1" vertex="1">
                    <mxGeometry x="345.63" y="490" width="156.25" height="140" as="geometry"/>
                </mxCell>
                <mxCell id="7BmVZYCQMe31qWAxTi0C-40" style="edgeStyle=orthogonalEdgeStyle;rounded=0;orthogonalLoop=1;jettySize=auto;html=1;exitX=0;exitY=0.5;exitDx=0;exitDy=0;entryX=0;entryY=0.5;entryDx=0;entryDy=0;" parent="WIyWlLk6GJQsqaUBKTNV-1" source="7BmVZYCQMe31qWAxTi0C-17" target="7BmVZYCQMe31qWAxTi0C-11" edge="1">
                    <mxGeometry relative="1" as="geometry"/>
                </mxCell>
                <mxCell id="7BmVZYCQMe31qWAxTi0C-17" value="&lt;b&gt;&lt;font style=&quot;font-size: 14px&quot;&gt;ArrayFinal[0] = [Array[0]]&lt;br&gt;&lt;br&gt;ArrayIndice[0] = [indexofArray[0]]&lt;/font&gt;&lt;/b&gt;" style="whiteSpace=wrap;html=1;" parent="WIyWlLk6GJQsqaUBKTNV-1" vertex="1">
                    <mxGeometry x="50" y="515" width="240" height="90" as="geometry"/>
                </mxCell>
                <mxCell id="7BmVZYCQMe31qWAxTi0C-26" value="&lt;b&gt;&lt;font style=&quot;font-size: 14px&quot;&gt;SI&lt;/font&gt;&lt;/b&gt;" style="text;html=1;strokeColor=none;fillColor=none;align=center;verticalAlign=middle;whiteSpace=wrap;rounded=0;" parent="WIyWlLk6GJQsqaUBKTNV-1" vertex="1">
                    <mxGeometry x="290" y="530" width="60" height="30" as="geometry"/>
                </mxCell>
                <mxCell id="7BmVZYCQMe31qWAxTi0C-29" value="&lt;b&gt;&lt;font style=&quot;font-size: 14px&quot;&gt;NO&lt;/font&gt;&lt;/b&gt;" style="text;html=1;strokeColor=none;fillColor=none;align=center;verticalAlign=middle;whiteSpace=wrap;rounded=0;" parent="WIyWlLk6GJQsqaUBKTNV-1" vertex="1">
                    <mxGeometry x="510" y="530" width="60" height="30" as="geometry"/>
                </mxCell>
                <mxCell id="7BmVZYCQMe31qWAxTi0C-38" value="" style="edgeStyle=orthogonalEdgeStyle;rounded=0;orthogonalLoop=1;jettySize=auto;html=1;" parent="WIyWlLk6GJQsqaUBKTNV-1" source="7BmVZYCQMe31qWAxTi0C-31" target="7BmVZYCQMe31qWAxTi0C-36" edge="1">
                    <mxGeometry relative="1" as="geometry"/>
                </mxCell>
                <mxCell id="7BmVZYCQMe31qWAxTi0C-48" style="edgeStyle=orthogonalEdgeStyle;rounded=0;orthogonalLoop=1;jettySize=auto;html=1;exitX=0.5;exitY=1;exitDx=0;exitDy=0;entryX=0;entryY=0.5;entryDx=0;entryDy=0;" parent="WIyWlLk6GJQsqaUBKTNV-1" source="7BmVZYCQMe31qWAxTi0C-31" target="7BmVZYCQMe31qWAxTi0C-32" edge="1">
                    <mxGeometry relative="1" as="geometry"/>
                </mxCell>
                <mxCell id="7BmVZYCQMe31qWAxTi0C-31" value="&lt;b&gt;Array[0] = Array[i]&lt;/b&gt;" style="rhombus;whiteSpace=wrap;html=1;" parent="WIyWlLk6GJQsqaUBKTNV-1" vertex="1">
                    <mxGeometry x="590" y="500" width="140" height="120" as="geometry"/>
                </mxCell>
                <mxCell id="7BmVZYCQMe31qWAxTi0C-42" style="edgeStyle=orthogonalEdgeStyle;rounded=0;orthogonalLoop=1;jettySize=auto;html=1;entryX=1;entryY=0.5;entryDx=0;entryDy=0;startArrow=none;" parent="WIyWlLk6GJQsqaUBKTNV-1" source="7BmVZYCQMe31qWAxTi0C-44" target="7BmVZYCQMe31qWAxTi0C-11" edge="1">
                    <mxGeometry relative="1" as="geometry">
                        <Array as="points">
                            <mxPoint x="1120" y="425"/>
                        </Array>
                    </mxGeometry>
                </mxCell>
                <mxCell id="7BmVZYCQMe31qWAxTi0C-50" style="edgeStyle=orthogonalEdgeStyle;rounded=0;orthogonalLoop=1;jettySize=auto;html=1;" parent="WIyWlLk6GJQsqaUBKTNV-1" source="7BmVZYCQMe31qWAxTi0C-32" target="7BmVZYCQMe31qWAxTi0C-44" edge="1">
                    <mxGeometry relative="1" as="geometry"/>
                </mxCell>
                <mxCell id="7BmVZYCQMe31qWAxTi0C-32" value="&lt;b&gt;&lt;font style=&quot;font-size: 14px&quot;&gt;ArrayFinal.push(Array[i])&lt;br&gt;&lt;br&gt;ArrayIndice.push(indexofArray[i])&lt;/font&gt;&lt;/b&gt;" style="whiteSpace=wrap;html=1;" parent="WIyWlLk6GJQsqaUBKTNV-1" vertex="1">
                    <mxGeometry x="820" y="690" width="240" height="90" as="geometry"/>
                </mxCell>
                <mxCell id="7BmVZYCQMe31qWAxTi0C-35" value="&lt;b&gt;&lt;font style=&quot;font-size: 14px&quot;&gt;NO&lt;/font&gt;&lt;/b&gt;" style="text;html=1;strokeColor=none;fillColor=none;align=center;verticalAlign=middle;whiteSpace=wrap;rounded=0;" parent="WIyWlLk6GJQsqaUBKTNV-1" vertex="1">
                    <mxGeometry x="740" y="530" width="60" height="30" as="geometry"/>
                </mxCell>
                <mxCell id="7BmVZYCQMe31qWAxTi0C-45" value="" style="edgeStyle=orthogonalEdgeStyle;rounded=0;orthogonalLoop=1;jettySize=auto;html=1;" parent="WIyWlLk6GJQsqaUBKTNV-1" source="7BmVZYCQMe31qWAxTi0C-36" target="7BmVZYCQMe31qWAxTi0C-44" edge="1">
                    <mxGeometry relative="1" as="geometry"/>
                </mxCell>
                <mxCell id="7BmVZYCQMe31qWAxTi0C-36" value="&lt;b&gt;&lt;font style=&quot;font-size: 14px&quot;&gt;ArrayFinal[0] = [Array[i]]&lt;br&gt;&lt;br&gt;ArrayIndice[0] = [indexofArray[i]]&lt;/font&gt;&lt;/b&gt;" style="whiteSpace=wrap;html=1;" parent="WIyWlLk6GJQsqaUBKTNV-1" vertex="1">
                    <mxGeometry x="820" y="515" width="240" height="90" as="geometry"/>
                </mxCell>
                <mxCell id="7BmVZYCQMe31qWAxTi0C-44" value="" style="shape=waypoint;size=6;pointerEvents=1;points=[];fillColor=#ffffff;resizable=0;rotatable=0;perimeter=centerPerimeter;snapToPoint=1;" parent="WIyWlLk6GJQsqaUBKTNV-1" vertex="1">
                    <mxGeometry x="1100" y="540" width="40" height="40" as="geometry"/>
                </mxCell>
                <mxCell id="7BmVZYCQMe31qWAxTi0C-49" value="&lt;b&gt;&lt;font style=&quot;font-size: 14px&quot;&gt;SI&lt;/font&gt;&lt;/b&gt;" style="text;html=1;strokeColor=none;fillColor=none;align=center;verticalAlign=middle;whiteSpace=wrap;rounded=0;" parent="WIyWlLk6GJQsqaUBKTNV-1" vertex="1">
                    <mxGeometry x="730" y="700" width="60" height="30" as="geometry"/>
                </mxCell>
                <mxCell id="jk53wH1B9vkXoXw3cG4e-0" value="" style="edgeStyle=orthogonalEdgeStyle;rounded=0;orthogonalLoop=1;jettySize=auto;html=1;" parent="WIyWlLk6GJQsqaUBKTNV-1" source="7BmVZYCQMe31qWAxTi0C-51" target="7BmVZYCQMe31qWAxTi0C-54" edge="1">
                    <mxGeometry relative="1" as="geometry"/>
                </mxCell>
                <mxCell id="7BmVZYCQMe31qWAxTi0C-51" value="&lt;b&gt;&lt;font style=&quot;font-size: 14px&quot;&gt;ArrayFinalResulado&lt;br&gt;ArrayIndiceREsulado&lt;/font&gt;&lt;/b&gt;" style="shape=document;whiteSpace=wrap;html=1;boundedLbl=1;" parent="WIyWlLk6GJQsqaUBKTNV-1" vertex="1">
                    <mxGeometry x="337.98" y="800" width="173.43" height="70" as="geometry"/>
                </mxCell>
                <mxCell id="7BmVZYCQMe31qWAxTi0C-69" value="" style="edgeStyle=orthogonalEdgeStyle;rounded=0;orthogonalLoop=1;jettySize=auto;html=1;" parent="WIyWlLk6GJQsqaUBKTNV-1" source="7BmVZYCQMe31qWAxTi0C-54" target="7BmVZYCQMe31qWAxTi0C-66" edge="1">
                    <mxGeometry relative="1" as="geometry"/>
                </mxCell>
                <mxCell id="7BmVZYCQMe31qWAxTi0C-54" value="&lt;b&gt;&lt;font style=&quot;font-size: 14px&quot;&gt;Filtrar Elementos del array final con&amp;nbsp; tamanos iguales a ArrayFinal[0].length en nuevo array resultado.&lt;br&gt;&lt;br&gt;Filtrar Elementos del array indice con tamanos iguales a ArrayIndice[0] en un nuevo array resultado.&lt;/font&gt;&lt;/b&gt;" style="rounded=0;whiteSpace=wrap;html=1;" parent="WIyWlLk6GJQsqaUBKTNV-1" vertex="1">
                    <mxGeometry x="278.76" y="910" width="290" height="140" as="geometry"/>
                </mxCell>
                <mxCell id="7BmVZYCQMe31qWAxTi0C-55" value="&lt;font style=&quot;font-size: 14px&quot;&gt;&lt;b&gt;Loop&lt;/b&gt;&lt;/font&gt;" style="ellipse;whiteSpace=wrap;html=1;aspect=fixed;" parent="WIyWlLk6GJQsqaUBKTNV-1" vertex="1">
                    <mxGeometry x="390" y="290" width="60" height="60" as="geometry"/>
                </mxCell>
                <mxCell id="7BmVZYCQMe31qWAxTi0C-60" style="edgeStyle=orthogonalEdgeStyle;rounded=0;orthogonalLoop=1;jettySize=auto;html=1;exitX=0.5;exitY=1;exitDx=0;exitDy=0;" parent="WIyWlLk6GJQsqaUBKTNV-1" source="7BmVZYCQMe31qWAxTi0C-57" target="7BmVZYCQMe31qWAxTi0C-51" edge="1">
                    <mxGeometry relative="1" as="geometry"/>
                </mxCell>
                <mxCell id="7BmVZYCQMe31qWAxTi0C-57" value="&lt;font style=&quot;font-size: 14px&quot;&gt;&lt;b&gt;Fin Loop&lt;/b&gt;&lt;/font&gt;" style="ellipse;whiteSpace=wrap;html=1;aspect=fixed;" parent="WIyWlLk6GJQsqaUBKTNV-1" vertex="1">
                    <mxGeometry x="384.69" y="680" width="80" height="80" as="geometry"/>
                </mxCell>
                <mxCell id="7BmVZYCQMe31qWAxTi0C-65" value="" style="edgeStyle=orthogonalEdgeStyle;rounded=0;orthogonalLoop=1;jettySize=auto;html=1;" parent="WIyWlLk6GJQsqaUBKTNV-1" source="7BmVZYCQMe31qWAxTi0C-61" target="7BmVZYCQMe31qWAxTi0C-64" edge="1">
                    <mxGeometry relative="1" as="geometry"/>
                </mxCell>
                <mxCell id="7BmVZYCQMe31qWAxTi0C-61" value="&lt;span style=&quot;font-size: 14px&quot;&gt;&lt;b&gt;Mostrar `La cadena o String mas larga se llama &quot;ResultadoArray&quot; y esta ubicada en la posicion &quot;ResultadoIndice&quot;&lt;/b&gt;&lt;/span&gt;" style="shape=parallelogram;perimeter=parallelogramPerimeter;whiteSpace=wrap;html=1;fixedSize=1;" parent="WIyWlLk6GJQsqaUBKTNV-1" vertex="1">
                    <mxGeometry x="228.13" y="1240" width="391.24" height="120" as="geometry"/>
                </mxCell>
                <mxCell id="7BmVZYCQMe31qWAxTi0C-64" value="&lt;b&gt;&lt;font style=&quot;font-size: 18px&quot;&gt;FIN&lt;/font&gt;&lt;/b&gt;" style="ellipse;whiteSpace=wrap;html=1;" parent="WIyWlLk6GJQsqaUBKTNV-1" vertex="1">
                    <mxGeometry x="352.19" y="1420" width="145" height="110" as="geometry"/>
                </mxCell>
                <mxCell id="7BmVZYCQMe31qWAxTi0C-70" value="" style="edgeStyle=orthogonalEdgeStyle;rounded=0;orthogonalLoop=1;jettySize=auto;html=1;" parent="WIyWlLk6GJQsqaUBKTNV-1" source="7BmVZYCQMe31qWAxTi0C-66" target="7BmVZYCQMe31qWAxTi0C-61" edge="1">
                    <mxGeometry relative="1" as="geometry"/>
                </mxCell>
                <mxCell id="7BmVZYCQMe31qWAxTi0C-66" value="&lt;span style=&quot;font-size: 14px&quot;&gt;&lt;b&gt;ResultadoArray&lt;br&gt;ResultadoIndice&lt;br&gt;&lt;/b&gt;&lt;/span&gt;" style="shape=document;whiteSpace=wrap;html=1;boundedLbl=1;" parent="WIyWlLk6GJQsqaUBKTNV-1" vertex="1">
                    <mxGeometry x="343.76" y="1110" width="160" height="100" as="geometry"/>
                </mxCell>
            </root>
        </mxGraphModel>
    </diagram>
</mxfile>